<svg xmlns="http://www.w3.org/2000/svg" width="232" height="58.85" viewBox="0 0 232 58.85"><defs><style>.a{fill:#434444;}.b{fill:#adc239;}.c{fill:#53762e;}.d{fill:#75984b;}.e{fill:#8b8b89;}.f{fill:#c3c3c4;}.g{fill:#e6ecf0;}.h{fill:#dd4b41;}.i{fill:#d2d4cf;}.j{fill:#c63c31;}.k{fill:#0093d5;}.l{fill:#1982ad;}.m{fill:#c8cdcf;}.n{fill:#b9bec2;}.o{fill:#ffca4a;}.p{fill:#f9b442;}.q{fill:#516778;}</style></defs><g transform="translate(-314 -401)"><g transform="translate(314 401)"><path class="a" d="M216.436,19.067l-6.017,1.766,2.523,31.683,18.376,5.18,4.725-1.124,8.345,4.957h9.058l3.364-1.9,1.592,1.125,2.4.774,9.338-10.823,1.4,1.825,7.7,2.224,1.65-.617L277.9,41.782l-.841-5.928,9.9-15.015-6.151-1.772-19.6,4.306L247.3,25.619l-10.094-2.371-9.447-4.181-5.176-1.248" transform="translate(-83.456 -6.856)"/><g transform="translate(0 13.418)"><path class="a" d="M199.03,30.452v.721q0,8.14,0,16.281c0,.25-.012.5-.037.748a.816.816,0,0,1-.891.8c-1.317.015-2.631.018-3.945,0a.8.8,0,0,1-.895-.855c0-.271-.018-.539-.018-.81q0-13.444,0-26.887c0-1.591.108-1.692,1.752-1.692.95,0,1.9,0,2.847,0a1.277,1.277,0,0,1,1.2.676q4.617,7.685,9.25,15.357c.512.858.932,1.766,1.545,2.648v-.685q0-8.265,0-16.531c0-1.3.173-1.465,1.527-1.465,1.015,0,2.029-.012,3.041,0,.922.015,1.209.289,1.209,1.165q0,13.971,0,27.944c0,.855-.29,1.135-1.154,1.144-1.184.009-2.372-.006-3.556,0a1.156,1.156,0,0,1-1.1-.611q-4.705-7.814-9.417-15.622c-.453-.751-.814-1.552-1.215-2.329Z" transform="translate(-119.268 -18.43)"/><path class="a" d="M224.057,34.069v7.673c0,3.681-1.582,5.906-5.247,7.005a19.959,19.959,0,0,1-12.372-.173,6.428,6.428,0,0,1-4.546-4.635,7.362,7.362,0,0,1-.194-1.725c-.015-5.385,0-10.77-.012-16.152a6.324,6.324,0,0,1,3.973-6.115,16.737,16.737,0,0,1,7.366-1.3,17.3,17.3,0,0,1,6.514,1.054,6.526,6.526,0,0,1,4.423,4.962,8.679,8.679,0,0,1,.093,1.552C224.063,28.83,224.057,31.451,224.057,34.069Zm-6.156.048c0-2.326.009-4.655,0-6.985a3.044,3.044,0,0,0-2.566-3.27,8.844,8.844,0,0,0-5.031.036,3.028,3.028,0,0,0-2.418,3.145q-.028,7.077,0,14.157a3,3,0,0,0,2.329,3.08,8.927,8.927,0,0,0,4.658.191c2.193-.462,3.029-1.507,3.032-3.678Z" transform="translate(-101.659 -18.643)"/><path class="a" d="M175.387,31H185.43v-.757q0-5.053,0-10.106c0-1.153.237-1.382,1.437-1.385,1.166,0,2.329-.009,3.495,0,.956.012,1.224.28,1.224,1.206q0,13.908,0,27.822c0,.965-.265,1.221-1.258,1.224-1.209.006-2.415.006-3.624,0-1,0-1.271-.259-1.274-1.215,0-3.7-.015-7.4.012-11.1,0-.587-.142-.783-.78-.777-2.869.033-5.734.027-8.6,0-.543,0-.691.161-.688.673.022,3.577.012,7.154.009,10.732a6.368,6.368,0,0,1-.018.685c-.089.789-.327,1-1.169,1-1.271.006-2.545.009-3.815,0-.873-.006-1.123-.247-1.123-1.069q0-14.038,0-28.076c0-.852.241-1.1,1.16-1.108,1.206-.015,2.415-.009,3.621,0,1.067.006,1.329.247,1.342,1.3.015,1.331.006,2.663.006,3.994V31Z" transform="translate(-169.256 -18.431)"/><path class="a" d="M191.449,38.266v.843q0,4.3,0,8.608c0,1.066-.228,1.287-1.311,1.287-1.209,0-2.415.006-3.621,0-.916-.006-1.184-.265-1.225-1.153-.006-.167,0-.334,0-.5V20.41c0-.167,0-.334,0-.5.04-.885.308-1.165,1.228-1.159,3.92.024,7.844.018,11.764.122a11.98,11.98,0,0,1,5.321,1.361,6.212,6.212,0,0,1,3.621,5.82c0,1.662.009,3.327,0,4.989a6.129,6.129,0,0,1-3.353,5.594,12.231,12.231,0,0,1-5.478,1.5c-2.02.11-4.047.1-6.073.131C192.063,38.272,191.807,38.266,191.449,38.266Zm.034-5.007c2.02,0,3.979.06,5.928-.033a5.936,5.936,0,0,0,2.19-.658,2.5,2.5,0,0,0,1.477-2.323q.032-1.742,0-3.491a2.494,2.494,0,0,0-1.391-2.246,5.47,5.47,0,0,0-2.048-.685c-1.845-.125-3.7-.092-5.549-.158-.537-.018-.651.179-.648.649.019,2.806.006,5.612.009,8.417C191.449,32.9,191.471,33.06,191.483,33.259Z" transform="translate(-135.844 -18.423)"/><path class="a" d="M189.028,32.286c.253-.7.429-1.361.722-1.975,1.7-3.565,3.421-7.119,5.129-10.678a1.408,1.408,0,0,1,1.413-.882c1.187.015,2.372-.009,3.556.006,1.114.015,1.339.384.854,1.367q-4.122,8.315-8.232,16.635a3.536,3.536,0,0,0-.342,1.483c-.031,3.16-.015,6.32-.019,9.481,0,1.048-.247,1.284-1.323,1.287-1.231,0-2.458.009-3.686,0-.888-.009-1.166-.265-1.169-1.12-.012-2.973.006-5.945-.022-8.921a3.523,3.523,0,0,0-.321-1.43q-4.1-8.632-8.251-17.246c-.071-.149-.148-.3-.21-.453-.268-.649-.062-1.045.66-1.063,1.573-.042,3.146-.03,4.719-.009.743.012,1.055.545,1.3,1.129,1.206,2.8,2.427,5.588,3.618,8.39C187.976,29.573,188.467,30.88,189.028,32.286Z" transform="translate(-153.083 -18.43)"/></g><path class="b" d="M210.946,24.955l36.708-10.817L284.1,24.955l-36.579,12.98Z" transform="translate(-82.356 -14.138)"/><path class="c" d="M239.071,15.4V31L215,22.476Z" transform="translate(-73.903 -11.634)"/><path class="d" d="M222.806,15.4V31l24.069-8.529Z" transform="translate(-57.637 -11.634)"/><path class="c" d="M210.727,18.933" transform="translate(-82.814 -4.651)"/><path class="c" d="M217.552,24.908" transform="translate(-68.588 7.17)"/><g transform="translate(126.081 14.07)"><path class="e" d="M229.747,40.534l.148-.092c3.152-.718,3.057-3.041,3.057-3.041V32.813c-1.067-6.8-9.932-9.7-9.932-9.7s-10.826-3.881-11.681-4.173a.96.96,0,0,0-1.206.363c.022,1.617.028,29.3.074,30.19.049.92,1.086,1.34,1.086,1.34s8.7,3.107,11.042,3.824a20.718,20.718,0,0,0,7.85,1.355,4.163,4.163,0,0,0,4.352-3.461V46.917C234.293,44.06,229.747,40.534,229.747,40.534ZM218.2,27.383c7.409,1.841,6.86,4.429,6.86,4.429a17.4,17.4,0,0,1,0,2.341c-.065,1.936-3.464,1.185-3.464,1.185l-3.4-1.185Zm8.541,20.376c-.031,1.778-3.559,1.123-3.559,1.123L218.2,47.2V39.9s1.521.53,4.917,1.683,3.624,3.747,3.624,3.747S226.773,45.978,226.74,47.759Z" transform="translate(-210.133 -18.862)"/><path class="e" d="M210.133,19.063v0Z" transform="translate(-210.133 -18.623)"/></g><path class="f" d="M222.786,23.849l3.945-.935s4.886-.935,6.536,1.248c1.067,1.5,1.231,2.121,1.262,4.337s.034,17.192.034,17.192-1.3,10.359-11.582,10.329h-.194v-6.21s3.59-.375,3.751-3.276-.031-15.134-.031-15.134a1.151,1.151,0,0,0-.583-1.09c-.648-.313-2.168.25-3.137.25Z" transform="translate(-57.678 2.83)"/><path class="e" d="M231.518,24.023v6.711s-2.029-.2-2.224-.262-1.724-.435-2.329.4a1.224,1.224,0,0,0-.453,1.144c.022.873.065,14.791.065,14.791s.626,3.1,4.941,3.181v6.21s-5.157.071-7.335-1.57a11.984,11.984,0,0,1-5.586-8.739V26.54a4.865,4.865,0,0,1,4.38-3.89,12.576,12.576,0,0,1,3.923.375A24.652,24.652,0,0,0,231.518,24.023Z" transform="translate(-66.41 2.655)"/><path class="f" d="M240.462,31.873l4.269-9.153a3.494,3.494,0,0,1,2.2-1.954c1.6-.417,5.305-1.832,5.305-1.832s1.425-.459.907.748-8.757,17.433-8.757,17.433L253.257,49.1s.793,1.04-.676,1.579-6.382,2.29-6.382,2.29a1.734,1.734,0,0,1-1.727-.834c-.648-1.04-4.873-6.407-4.873-6.407l-4.315,9.612a4.989,4.989,0,0,1-2.156,2.246c-1.379.584-5.607,1.957-5.607,1.957s-1.465.206-.475-1.79,8.454-17.6,8.454-17.6L227.347,29.21a1.173,1.173,0,0,1,.777-1.832c1.595-.456,5.953-2,5.953-2a1.393,1.393,0,0,1,1.811.459C236.622,26.881,240.462,31.873,240.462,31.873Z" transform="translate(-49.516 -4.819)"/></g><g transform="translate(535.177 409.098)"><path class="g" d="M241.2,17.028c.083.069.176.143.271.226C241.372,17.171,241.279,17.1,241.2,17.028Z" transform="translate(-240.48 -16.519)"/><path class="g" d="M241.053,16.917c.114.08.262.188.435.328C241.315,17.1,241.167,17,241.053,16.917Z" transform="translate(-240.779 -16.738)"/><path class="g" d="M240.977,16.865l.071.045Z" transform="translate(-240.937 -16.841)"/><path class="g" d="M241.008,16.885l.13.089Z" transform="translate(-240.872 -16.802)"/><path class="g" d="M240.964,16.857l.028.015Z" transform="translate(-240.964 -16.857)"/></g><g transform="translate(524.369 409.113)"><path class="h" d="M241.05,16.915l.009.006Z" transform="translate(-229.977 -16.757)"/><path class="h" d="M241,16.88l.025.015Z" transform="translate(-230.081 -16.826)"/><path class="h" d="M240.973,16.862l.012.009Z" transform="translate(-230.137 -16.862)"/><path class="h" d="M241.284,17.1l.012.009Z" transform="translate(-229.489 -16.383)"/><path class="h" d="M241.194,17.027l.006,0Z" transform="translate(-229.677 -16.536)"/><path class="h" d="M238.965,38.417a9.316,9.316,0,0,1,18.621,0,8.56,8.56,0,0,1-.052.938,10.122,10.122,0,0,0,1.558-5.379,10.822,10.822,0,0,0-21.631,0,10.094,10.094,0,0,0,1.558,5.379A8.567,8.567,0,0,1,238.965,38.417Z" transform="translate(-237.46 -3.663)"/></g><g transform="translate(528.15 409.098)"><path class="i" d="M245.712,16.857s-7.026,3.7-7.026,16.775c0,5.522,1.027,11.155,2.634,14.359H250.1c1.607-3.2,2.634-8.837,2.634-14.359C252.739,20.9,245.712,16.857,245.712,16.857Z" transform="translate(-238.686 -16.857)"/><path class="i" d="M242.15,18.144c.13.2.262.411.392.631C242.412,18.555,242.279,18.347,242.15,18.144Z" transform="translate(-231.466 -14.311)"/><path class="i" d="M243.928,20.166a14.539,14.539,0,0,0-2.64-3.059A14.539,14.539,0,0,1,243.928,20.166Z" transform="translate(-233.262 -16.362)"/><path class="i" d="M242.282,18.365c.275.462.54.962.8,1.507C242.822,19.327,242.557,18.827,242.282,18.365Z" transform="translate(-231.19 -13.873)"/></g><g transform="translate(530.248 409.098)"><path class="h" d="M244.295,16.857s-2.859,1.513-4.929,6h8.066C246.1,18.468,244.295,16.857,244.295,16.857Z" transform="translate(-239.366 -16.857)"/><path class="h" d="M242.277,18.356l.015.027Z" transform="translate(-233.298 -13.891)"/><path class="h" d="M242.144,18.134l.018.03Z" transform="translate(-233.575 -14.33)"/><path class="h" d="M242.54,18.871Z" transform="translate(-232.75 -12.872)"/></g><path class="j" d="M245.825,22.856c-.256-.545-.521-1.045-.8-1.507l-.015-.027c-.13-.22-.262-.429-.392-.631l-.018-.03a14.539,14.539,0,0,0-2.64-3.059l-.012-.009c-.1-.083-.188-.158-.271-.226l-.006,0c-.173-.14-.321-.247-.435-.328l-.009-.006-.13-.089-.025-.015L241,16.881l-.012-.009-.028-.015s1.8,1.611,3.137,6Z" transform="translate(294.213 392.241)"/><g transform="translate(532.26 418.043)"><ellipse class="h" cx="2.918" cy="2.818" rx="2.918" ry="2.818"/><ellipse class="k" cx="2.378" cy="2.296" rx="2.378" ry="2.296" transform="translate(0.54 0.522)"/></g><path class="l" d="M240.6,22.528a2.175,2.175,0,0,1,4.343-.1c0-.033.009-.066.009-.1a2.38,2.38,0,1,0-2.378,2.3c.034,0,.068-.009.1-.009A2.133,2.133,0,0,1,240.6,22.528Z" transform="translate(292.605 398.529)"/><g transform="translate(537.077 415.097)"><path class="m" d="M242.925,26.832h2.5c-.062.229-.123.453-.188.673h-2.5a18.494,18.494,0,0,1-1.157,3.062h2.492a22.066,22.066,0,0,0,1.632-4.9h-2.5C243.119,26.063,243.027,26.453,242.925,26.832Z" transform="translate(-241.58 -5.431)"/><path class="n" d="M244.868,39.1a44.353,44.353,0,0,0,1-9.454,25,25,0,0,0-2.165-10.776h-1.724a37.048,37.048,0,0,1,1.4,10.776,44.776,44.776,0,0,1-.861,8.784h2.5C244.967,38.657,244.917,38.881,244.868,39.1Z" transform="translate(-240.744 -18.871)"/></g><g transform="translate(529.008 434.657)"><path class="o" d="M242.918,25.663v0h0Z" transform="translate(-230.725 -24.993)"/><path class="o" d="M238.964,25.438c.046.226.1.45.145.673h9.552c.049-.223.1-.447.145-.673Z" transform="translate(-238.964 -25.438)"/></g><path class="p" d="M244.748,25.438h-2.5c-.046.226-.1.45-.145.673h2.5v0C244.653,25.888,244.7,25.664,244.748,25.438Z" transform="translate(296.598 409.219)"/><path class="o" d="M239.1,26.056c.062.229.126.453.188.673H247.9c.065-.22.13-.444.188-.673Z" transform="translate(290.334 410.442)"/><path class="p" d="M244.638,26.056h-2.5c-.059.229-.123.453-.188.673h2.5C244.515,26.509,244.577,26.285,244.638,26.056Z" transform="translate(296.278 410.442)"/><path class="q" d="M240.031,27.31l-.727,1.635H249.55l-.727-1.635" transform="translate(290.753 412.923)"/><path class="h" d="M247.491,28.619a4.508,4.508,0,0,1-.3,3.994,3.463,3.463,0,0,0-1.505-1.719c.241,3.833-1.727,4.691-1.727,4.691-1.659-.992-1.147-4.923-1.147-4.923a2.8,2.8,0,0,1-1.471,1.057c-1.141-2.082.04-3.086.219-3.22-.293.214-3.273,2.532-1.45,5.236a4.791,4.791,0,0,0,2.017-1.454s-.719,4.593,1.885,6.276c0,0,2.258-1.319,2.085-6.276,0,0,.376,3.369.854,3.833C246.955,36.116,249.811,32.167,247.491,28.619Z" transform="translate(291.217 415.277)"/><g transform="translate(532.07 442.306)"><path class="o" d="M243.095,29.6a4.125,4.125,0,0,0-1.459-1.591A6.878,6.878,0,0,1,243.095,29.6Z" transform="translate(-236.457 -28.006)"/><path class="o" d="M240.187,28.512l.022-.018Z" transform="translate(-239.477 -27.04)"/><path class="o" d="M240.448,32.7a2.8,2.8,0,0,0,1.471-1.057s-.512,3.932,1.147,4.923c0,0,1.968-.858,1.727-4.691a3.463,3.463,0,0,1,1.505,1.719,4.508,4.508,0,0,0,.3-3.994,6.877,6.877,0,0,0-1.459-1.591,5.691,5.691,0,0,1,.546,3.3c-.888-1.882-1.607-1.85-1.607-1.85.583,2.576-.8,3.339-.8,3.339-.935-.894-.672-3.008-.672-3.008-.068.4-1.4,1.421-1.4,1.421a2.231,2.231,0,0,1-.512-1.751l-.022.018C240.488,29.611,239.307,30.615,240.448,32.7Z" transform="translate(-239.957 -28.006)"/></g><ellipse class="h" cx="0.782" cy="7.978" rx="0.782" ry="7.978" transform="translate(534.401 427.82)"/><path class="j" d="M241.265,31.119a39.388,39.388,0,0,1,.506-7.455c-.086-.334-.179-.521-.278-.521-.432,0-.78,3.571-.78,7.976s.349,7.979.78,7.979c.1,0,.191-.191.278-.521A39.449,39.449,0,0,1,241.265,31.119Z" transform="translate(293.689 404.678)"/></g></svg>